<?xml version="1.0" encoding="UTF-8"?>
<svg width="512" height="512" viewBox="0 0 512 512" fill="none" xmlns="http://www.w3.org/2000/svg">
  <path d="M176 112H336C336 112 368 144 368 192C368 240 336 272 336 272H176C176 272 144 240 144 192C144 144 176 112 176 112Z" fill="#3498db" fill-opacity="0.2" stroke="#2ecc71" stroke-width="24" stroke-linecap="round" stroke-linejoin="round"/>
  <path d="M176 272C176 272 144 304 144 352C144 400 176 432 176 432H336C336 432 368 400 368 352C368 304 336 272 336 272" stroke="#2ecc71" stroke-width="24" stroke-linecap="round" stroke-linejoin="round"/>
  <path d="M256 176V208" stroke="#2ecc71" stroke-width="24" stroke-linecap="round" stroke-linejoin="round"/>
  <path d="M208 336H304" stroke="#2ecc71" stroke-width="24" stroke-linecap="round" stroke-linejoin="round"/>
</svg>
